<mxfile host="app.diagrams.net" modified="2020-11-02T10:25:59.989Z" agent="5.0 (X11)" etag="ccB1em8v1mM4N_Wl_Qe0" version="13.8.7" type="github">
  <diagram id="C5RBs43oDa-KdzZeNtuy" name="Page-1">
    <mxGraphModel dx="1218" dy="1982" grid="1" gridSize="10" guides="1" tooltips="1" connect="1" arrows="1" fold="1" page="1" pageScale="1" pageWidth="827" pageHeight="1169" math="0" shadow="0">
      <root>
        <mxCell id="WIyWlLk6GJQsqaUBKTNV-0" />
        <mxCell id="WIyWlLk6GJQsqaUBKTNV-1" parent="WIyWlLk6GJQsqaUBKTNV-0" />
        <mxCell id="D_8V-2hycaDIohQ93AO6-14" style="edgeStyle=orthogonalEdgeStyle;rounded=0;orthogonalLoop=1;jettySize=auto;html=1;entryX=0;entryY=0.5;entryDx=0;entryDy=0;" edge="1" parent="WIyWlLk6GJQsqaUBKTNV-1" source="WIyWlLk6GJQsqaUBKTNV-7" target="D_8V-2hycaDIohQ93AO6-11">
          <mxGeometry relative="1" as="geometry">
            <mxPoint x="660" y="180" as="targetPoint" />
            <Array as="points" />
          </mxGeometry>
        </mxCell>
        <mxCell id="D_8V-2hycaDIohQ93AO6-17" value="RPM" style="edgeLabel;html=1;align=center;verticalAlign=middle;resizable=0;points=[];" vertex="1" connectable="0" parent="D_8V-2hycaDIohQ93AO6-14">
          <mxGeometry x="-0.1733" y="-2" relative="1" as="geometry">
            <mxPoint y="-12" as="offset" />
          </mxGeometry>
        </mxCell>
        <mxCell id="WIyWlLk6GJQsqaUBKTNV-7" value="Engine" style="rounded=1;whiteSpace=wrap;html=1;fontSize=12;glass=0;strokeWidth=1;shadow=0;fillColor=#ffe6cc;strokeColor=#d79b00;" parent="WIyWlLk6GJQsqaUBKTNV-1" vertex="1">
          <mxGeometry x="400" y="28" width="220" height="302.5" as="geometry" />
        </mxCell>
        <mxCell id="D_8V-2hycaDIohQ93AO6-1" style="edgeStyle=orthogonalEdgeStyle;rounded=0;orthogonalLoop=1;jettySize=auto;html=1;entryX=0;entryY=0.25;entryDx=0;entryDy=0;" edge="1" parent="WIyWlLk6GJQsqaUBKTNV-1" source="D_8V-2hycaDIohQ93AO6-0" target="WIyWlLk6GJQsqaUBKTNV-7">
          <mxGeometry relative="1" as="geometry">
            <mxPoint x="390" y="150" as="targetPoint" />
          </mxGeometry>
        </mxCell>
        <mxCell id="D_8V-2hycaDIohQ93AO6-0" value="&lt;div&gt;Fuel&lt;/div&gt;&lt;div&gt;&lt;br&gt;&lt;/div&gt;" style="rounded=1;whiteSpace=wrap;html=1;absoluteArcSize=1;arcSize=14;strokeWidth=2;" vertex="1" parent="WIyWlLk6GJQsqaUBKTNV-1">
          <mxGeometry x="234" y="83" width="70" height="40" as="geometry" />
        </mxCell>
        <mxCell id="D_8V-2hycaDIohQ93AO6-8" style="edgeStyle=orthogonalEdgeStyle;rounded=0;orthogonalLoop=1;jettySize=auto;html=1;entryX=0;entryY=0.75;entryDx=0;entryDy=0;exitX=1;exitY=0.5;exitDx=0;exitDy=0;" edge="1" parent="WIyWlLk6GJQsqaUBKTNV-1" source="D_8V-2hycaDIohQ93AO6-5" target="D_8V-2hycaDIohQ93AO6-0">
          <mxGeometry relative="1" as="geometry" />
        </mxCell>
        <mxCell id="D_8V-2hycaDIohQ93AO6-10" style="edgeStyle=orthogonalEdgeStyle;rounded=0;orthogonalLoop=1;jettySize=auto;html=1;exitX=1;exitY=0.5;exitDx=0;exitDy=0;" edge="1" parent="WIyWlLk6GJQsqaUBKTNV-1" source="D_8V-2hycaDIohQ93AO6-5" target="D_8V-2hycaDIohQ93AO6-6">
          <mxGeometry relative="1" as="geometry" />
        </mxCell>
        <mxCell id="D_8V-2hycaDIohQ93AO6-5" value="Acc pedal" style="rounded=1;whiteSpace=wrap;html=1;absoluteArcSize=1;arcSize=14;strokeWidth=2;fillColor=#f5f5f5;strokeColor=#666666;fontColor=#333333;" vertex="1" parent="WIyWlLk6GJQsqaUBKTNV-1">
          <mxGeometry x="50" y="130" width="70" height="40" as="geometry" />
        </mxCell>
        <mxCell id="D_8V-2hycaDIohQ93AO6-7" style="edgeStyle=orthogonalEdgeStyle;rounded=0;orthogonalLoop=1;jettySize=auto;html=1;" edge="1" parent="WIyWlLk6GJQsqaUBKTNV-1" source="D_8V-2hycaDIohQ93AO6-6" target="WIyWlLk6GJQsqaUBKTNV-7">
          <mxGeometry relative="1" as="geometry" />
        </mxCell>
        <mxCell id="D_8V-2hycaDIohQ93AO6-6" value="&lt;div&gt;Air&lt;/div&gt;&lt;div&gt;&lt;br&gt;&lt;/div&gt;" style="rounded=1;whiteSpace=wrap;html=1;absoluteArcSize=1;arcSize=14;strokeWidth=2;" vertex="1" parent="WIyWlLk6GJQsqaUBKTNV-1">
          <mxGeometry x="234" y="159" width="70" height="40" as="geometry" />
        </mxCell>
        <mxCell id="D_8V-2hycaDIohQ93AO6-15" value="Torque" style="edgeStyle=orthogonalEdgeStyle;rounded=0;orthogonalLoop=1;jettySize=auto;html=1;exitX=1;exitY=0.5;exitDx=0;exitDy=0;" edge="1" parent="WIyWlLk6GJQsqaUBKTNV-1" source="D_8V-2hycaDIohQ93AO6-11" target="D_8V-2hycaDIohQ93AO6-18">
          <mxGeometry x="-0.0475" y="-20" relative="1" as="geometry">
            <mxPoint x="890" y="180" as="targetPoint" />
            <Array as="points">
              <mxPoint x="806" y="170" />
            </Array>
            <mxPoint as="offset" />
          </mxGeometry>
        </mxCell>
        <mxCell id="D_8V-2hycaDIohQ93AO6-11" value="&lt;div&gt;Gearbox &amp;amp; transmission&lt;/div&gt;&lt;div&gt;&lt;br&gt;&lt;/div&gt;&lt;div&gt;Gears R,N,1,2,3,4,5&lt;br&gt;&lt;/div&gt;" style="rounded=1;whiteSpace=wrap;html=1;fontSize=12;glass=0;strokeWidth=1;shadow=0;fillColor=#ffe6cc;strokeColor=#d79b00;" vertex="1" parent="WIyWlLk6GJQsqaUBKTNV-1">
          <mxGeometry x="690" y="128.75" width="116" height="100" as="geometry" />
        </mxCell>
        <mxCell id="D_8V-2hycaDIohQ93AO6-19" style="edgeStyle=orthogonalEdgeStyle;rounded=0;orthogonalLoop=1;jettySize=auto;html=1;exitX=1;exitY=0.5;exitDx=0;exitDy=0;entryX=0.5;entryY=1;entryDx=0;entryDy=0;" edge="1" parent="WIyWlLk6GJQsqaUBKTNV-1" source="D_8V-2hycaDIohQ93AO6-18" target="D_8V-2hycaDIohQ93AO6-11">
          <mxGeometry relative="1" as="geometry">
            <mxPoint x="940" y="380" as="targetPoint" />
            <Array as="points">
              <mxPoint x="1086" y="179" />
              <mxPoint x="1086" y="360" />
              <mxPoint x="748" y="360" />
            </Array>
          </mxGeometry>
        </mxCell>
        <mxCell id="D_8V-2hycaDIohQ93AO6-20" value="Vehicle speed" style="edgeLabel;html=1;align=center;verticalAlign=middle;resizable=0;points=[];" vertex="1" connectable="0" parent="D_8V-2hycaDIohQ93AO6-19">
          <mxGeometry x="0.1356" y="-1" relative="1" as="geometry">
            <mxPoint y="10" as="offset" />
          </mxGeometry>
        </mxCell>
        <mxCell id="D_8V-2hycaDIohQ93AO6-18" value="Wheels" style="rounded=1;whiteSpace=wrap;html=1;fontSize=12;glass=0;strokeWidth=1;shadow=0;" vertex="1" parent="WIyWlLk6GJQsqaUBKTNV-1">
          <mxGeometry x="950" y="128.75" width="116" height="100" as="geometry" />
        </mxCell>
        <mxCell id="D_8V-2hycaDIohQ93AO6-22" style="edgeStyle=orthogonalEdgeStyle;rounded=0;orthogonalLoop=1;jettySize=auto;html=1;" edge="1" parent="WIyWlLk6GJQsqaUBKTNV-1" source="D_8V-2hycaDIohQ93AO6-21" target="D_8V-2hycaDIohQ93AO6-18">
          <mxGeometry relative="1" as="geometry" />
        </mxCell>
        <mxCell id="D_8V-2hycaDIohQ93AO6-21" value="Brake pedal" style="rounded=1;whiteSpace=wrap;html=1;fontSize=12;glass=0;strokeWidth=1;shadow=0;fillColor=#f5f5f5;strokeColor=#666666;fontColor=#333333;" vertex="1" parent="WIyWlLk6GJQsqaUBKTNV-1">
          <mxGeometry x="54" y="-80" width="76" height="50" as="geometry" />
        </mxCell>
        <mxCell id="D_8V-2hycaDIohQ93AO6-25" style="edgeStyle=orthogonalEdgeStyle;rounded=0;orthogonalLoop=1;jettySize=auto;html=1;entryX=0;entryY=0.75;entryDx=0;entryDy=0;" edge="1" parent="WIyWlLk6GJQsqaUBKTNV-1" source="D_8V-2hycaDIohQ93AO6-23" target="D_8V-2hycaDIohQ93AO6-11">
          <mxGeometry relative="1" as="geometry">
            <Array as="points">
              <mxPoint x="85" y="350" />
              <mxPoint x="660" y="350" />
              <mxPoint x="660" y="204" />
            </Array>
          </mxGeometry>
        </mxCell>
        <mxCell id="D_8V-2hycaDIohQ93AO6-23" value="&lt;div&gt;Gear&lt;/div&gt;&lt;div&gt;R,P,N,D&lt;br&gt;&lt;/div&gt;" style="rounded=1;whiteSpace=wrap;html=1;absoluteArcSize=1;arcSize=14;strokeWidth=2;fillColor=#f5f5f5;strokeColor=#666666;fontColor=#333333;" vertex="1" parent="WIyWlLk6GJQsqaUBKTNV-1">
          <mxGeometry x="50" y="240" width="70" height="40" as="geometry" />
        </mxCell>
        <mxCell id="D_8V-2hycaDIohQ93AO6-27" style="edgeStyle=orthogonalEdgeStyle;rounded=0;orthogonalLoop=1;jettySize=auto;html=1;entryX=0;entryY=0.75;entryDx=0;entryDy=0;" edge="1" parent="WIyWlLk6GJQsqaUBKTNV-1" source="D_8V-2hycaDIohQ93AO6-26" target="WIyWlLk6GJQsqaUBKTNV-7">
          <mxGeometry relative="1" as="geometry" />
        </mxCell>
        <mxCell id="D_8V-2hycaDIohQ93AO6-26" value="&lt;div&gt;Altitude&lt;/div&gt;&lt;div&gt;Airtemp&lt;br&gt;&lt;/div&gt;" style="rounded=1;whiteSpace=wrap;html=1;absoluteArcSize=1;arcSize=14;strokeWidth=2;fillColor=#fff2cc;strokeColor=#d6b656;" vertex="1" parent="WIyWlLk6GJQsqaUBKTNV-1">
          <mxGeometry x="234" y="234.75" width="70" height="40" as="geometry" />
        </mxCell>
        <mxCell id="D_8V-2hycaDIohQ93AO6-29" value="&lt;div&gt;&lt;b&gt;Vehicle information&lt;/b&gt;&lt;/div&gt;&lt;div align=&quot;left&quot;&gt;Mass&lt;/div&gt;&lt;div align=&quot;left&quot;&gt;Passanger mass&lt;br&gt;&lt;/div&gt;&lt;div align=&quot;left&quot;&gt;Wheel radius&lt;/div&gt;&lt;div&gt;&lt;br&gt;&lt;/div&gt;&lt;div&gt;&lt;br&gt;&lt;/div&gt;&lt;div&gt;&lt;br&gt;&lt;b&gt;&lt;/b&gt;&lt;/div&gt;&lt;div&gt;&lt;br&gt;&lt;/div&gt;" style="rounded=1;whiteSpace=wrap;html=1;absoluteArcSize=1;arcSize=14;strokeWidth=2;fillColor=#fff2cc;strokeColor=#d6b656;" vertex="1" parent="WIyWlLk6GJQsqaUBKTNV-1">
          <mxGeometry x="160" y="390" width="180" height="180" as="geometry" />
        </mxCell>
        <mxCell id="D_8V-2hycaDIohQ93AO6-30" value="User input" style="rounded=1;whiteSpace=wrap;html=1;absoluteArcSize=1;arcSize=14;strokeWidth=2;fillColor=#f5f5f5;strokeColor=#666666;fontColor=#333333;" vertex="1" parent="WIyWlLk6GJQsqaUBKTNV-1">
          <mxGeometry x="60" y="-280" width="70" height="40" as="geometry" />
        </mxCell>
        <mxCell id="D_8V-2hycaDIohQ93AO6-32" value="Parameters" style="rounded=1;whiteSpace=wrap;html=1;absoluteArcSize=1;arcSize=14;strokeWidth=2;fillColor=#fff2cc;strokeColor=#d6b656;" vertex="1" parent="WIyWlLk6GJQsqaUBKTNV-1">
          <mxGeometry x="60" y="-230" width="70" height="40" as="geometry" />
        </mxCell>
        <mxCell id="D_8V-2hycaDIohQ93AO6-33" value="&lt;div&gt;&lt;font style=&quot;font-size: 10px&quot;&gt;MAP sensor&lt;/font&gt;&lt;/div&gt;&lt;div&gt;&lt;font style=&quot;font-size: 10px&quot;&gt;Lambda sensor&lt;br&gt;&lt;/font&gt;&lt;/div&gt;" style="text;html=1;align=center;verticalAlign=middle;resizable=0;points=[];autosize=1;" vertex="1" parent="WIyWlLk6GJQsqaUBKTNV-1">
          <mxGeometry x="430" y="224.75" width="90" height="40" as="geometry" />
        </mxCell>
        <mxCell id="D_8V-2hycaDIohQ93AO6-34" value="Simulation" style="rounded=1;whiteSpace=wrap;html=1;absoluteArcSize=1;arcSize=14;strokeWidth=2;fillColor=#ffe6cc;strokeColor=#d79b00;" vertex="1" parent="WIyWlLk6GJQsqaUBKTNV-1">
          <mxGeometry x="60" y="-180" width="70" height="40" as="geometry" />
        </mxCell>
        <mxCell id="D_8V-2hycaDIohQ93AO6-35" value="CAN" style="text;html=1;align=center;verticalAlign=middle;resizable=0;points=[];autosize=1;" vertex="1" parent="WIyWlLk6GJQsqaUBKTNV-1">
          <mxGeometry x="850" y="130" width="40" height="20" as="geometry" />
        </mxCell>
        <mxCell id="D_8V-2hycaDIohQ93AO6-36" value="CAN" style="text;html=1;align=center;verticalAlign=middle;resizable=0;points=[];autosize=1;" vertex="1" parent="WIyWlLk6GJQsqaUBKTNV-1">
          <mxGeometry x="630" y="130" width="40" height="20" as="geometry" />
        </mxCell>
        <mxCell id="D_8V-2hycaDIohQ93AO6-37" value="&lt;div align=&quot;left&quot;&gt;&lt;b&gt;Use cases:&lt;/b&gt;&lt;/div&gt;&lt;div align=&quot;left&quot;&gt;* Accelerate and decelerate&lt;/div&gt;&lt;div align=&quot;left&quot;&gt;* Start and stop ignition&lt;/div&gt;&lt;div align=&quot;left&quot;&gt;* Break&lt;/div&gt;&lt;div align=&quot;left&quot;&gt;* Change gear&lt;/div&gt;&lt;div align=&quot;left&quot;&gt;* Limp home&lt;br&gt;&lt;/div&gt;&lt;div align=&quot;left&quot;&gt;* Fault on break pedal&lt;/div&gt;&lt;div align=&quot;left&quot;&gt;* Fault on acc pedal&lt;/div&gt;&lt;div align=&quot;left&quot;&gt;* Fault on gearbox&lt;br&gt;&lt;/div&gt;&lt;div align=&quot;left&quot;&gt;* Fuel tank empty&lt;/div&gt;&lt;div align=&quot;left&quot;&gt;&lt;br&gt;&lt;/div&gt;&lt;div align=&quot;left&quot;&gt;&lt;br&gt;&lt;/div&gt;" style="text;html=1;align=center;verticalAlign=middle;resizable=0;points=[];autosize=1;" vertex="1" parent="WIyWlLk6GJQsqaUBKTNV-1">
          <mxGeometry x="275" y="-295" width="180" height="170" as="geometry" />
        </mxCell>
        <mxCell id="D_8V-2hycaDIohQ93AO6-39" style="edgeStyle=orthogonalEdgeStyle;rounded=0;orthogonalLoop=1;jettySize=auto;html=1;exitX=1;exitY=0.5;exitDx=0;exitDy=0;entryX=-0.017;entryY=0.118;entryDx=0;entryDy=0;entryPerimeter=0;" edge="1" parent="WIyWlLk6GJQsqaUBKTNV-1" source="D_8V-2hycaDIohQ93AO6-38" target="WIyWlLk6GJQsqaUBKTNV-7">
          <mxGeometry relative="1" as="geometry" />
        </mxCell>
        <mxCell id="D_8V-2hycaDIohQ93AO6-38" value="Ignition" style="rounded=1;whiteSpace=wrap;html=1;fontSize=12;glass=0;strokeWidth=1;shadow=0;fillColor=#f5f5f5;strokeColor=#666666;fontColor=#333333;" vertex="1" parent="WIyWlLk6GJQsqaUBKTNV-1">
          <mxGeometry x="50" width="76" height="50" as="geometry" />
        </mxCell>
        <mxCell id="D_8V-2hycaDIohQ93AO6-41" value="&lt;div align=&quot;left&quot;&gt;&lt;b&gt;Inputs:&lt;/b&gt;&lt;/div&gt;&lt;div align=&quot;left&quot;&gt;&lt;b&gt;* &lt;/b&gt;Break pedal position&lt;/div&gt;&lt;div align=&quot;left&quot;&gt;* Accelerator pedal position&lt;/div&gt;&lt;div align=&quot;left&quot;&gt;* Ignition position&lt;/div&gt;&lt;div align=&quot;left&quot;&gt;* Gear lever position&lt;/div&gt;&lt;div align=&quot;left&quot;&gt;* Altitude&lt;/div&gt;&lt;div align=&quot;left&quot;&gt;* Airtemp&lt;br&gt;&lt;/div&gt;" style="text;html=1;align=center;verticalAlign=middle;resizable=0;points=[];autosize=1;" vertex="1" parent="WIyWlLk6GJQsqaUBKTNV-1">
          <mxGeometry x="515" y="-295" width="190" height="100" as="geometry" />
        </mxCell>
        <mxCell id="D_8V-2hycaDIohQ93AO6-42" value="&lt;div align=&quot;left&quot;&gt;&lt;b&gt;Outputs&lt;/b&gt;:&lt;/div&gt;&lt;div align=&quot;left&quot;&gt;* Torque&lt;/div&gt;&lt;div align=&quot;left&quot;&gt;* Vehicle speed&lt;/div&gt;&lt;div align=&quot;left&quot;&gt;* Voltage (not MVP)&lt;br&gt;&lt;/div&gt;&lt;div align=&quot;left&quot;&gt;&lt;br&gt;&lt;/div&gt;" style="text;html=1;align=left;verticalAlign=middle;resizable=0;points=[];autosize=1;" vertex="1" parent="WIyWlLk6GJQsqaUBKTNV-1">
          <mxGeometry x="740" y="-295" width="140" height="80" as="geometry" />
        </mxCell>
        <mxCell id="D_8V-2hycaDIohQ93AO6-44" style="edgeStyle=orthogonalEdgeStyle;rounded=0;orthogonalLoop=1;jettySize=auto;html=1;entryX=0.25;entryY=0;entryDx=0;entryDy=0;" edge="1" parent="WIyWlLk6GJQsqaUBKTNV-1" target="WIyWlLk6GJQsqaUBKTNV-7">
          <mxGeometry relative="1" as="geometry">
            <mxPoint x="130" y="-40.00117647058829" as="sourcePoint" />
            <mxPoint x="1008" y="143.69" as="targetPoint" />
          </mxGeometry>
        </mxCell>
      </root>
    </mxGraphModel>
  </diagram>
</mxfile>
